<?xml version="1.0" standalone="no"?><!DOCTYPE svg PUBLIC "-//W3C//DTD SVG 1.1//EN" "http://www.w3.org/Graphics/SVG/1.1/DTD/svg11.dtd"><svg t="1686299065873" class="icon" viewBox="0 0 1024 1024" version="1.1" xmlns="http://www.w3.org/2000/svg" p-id="1905" width="512" height="512" xmlns:xlink="http://www.w3.org/1999/xlink"><path d="M298.624 490.667a64 64 0 1 0 128 0 64 64 0 1 0-128 0zM597.29 490.667a64 64 0 1 0 128 0 64 64 0 1 0-128 0zM426.624 640h170.667q42.666 0 42.666 42.667 0 42.666-42.666 42.666H426.624q-42.667 0-42.667-42.666 0-42.667 42.667-42.667zM469.376 256v-54.059A85.333 85.333 0 0 1 426.709 128a85.333 85.333 0 0 1 85.334-85.333A85.333 85.333 0 0 1 597.376 128a85.333 85.333 0 0 1-42.667 73.856v54.101zM42.667 778.155A40.704 40.704 0 0 1 0 739.755V475.22a42.88 42.88 0 0 1 85.333 0v264.534a40.704 40.704 0 0 1-42.666 38.4zM980.48 778.155a40.704 40.704 0 0 1-42.667-38.4V475.22a42.88 42.88 0 0 1 85.334 0v264.534a40.704 40.704 0 0 1-42.667 38.4zM341.291 896h341.333q42.667 0 42.667 42.667 0 42.666-42.667 42.666H341.291q-42.667 0-42.667-42.666 0-42.667 42.667-42.667z" p-id="1906" fill="#515151"></path><path d="M255.957 341.333A42.667 42.667 0 0 0 213.291 384v341.333A42.667 42.667 0 0 0 255.957 768h512a42.667 42.667 0 0 0 42.667-42.667V384a42.667 42.667 0 0 0-42.667-42.667h-512m0-85.333h512a128 128 0 0 1 128 128v341.333a128 128 0 0 1-128 128h-512a128 128 0 0 1-128-128V384a128 128 0 0 1 128-128z" p-id="1907" fill="#515151"></path></svg>